<?xml version="1.0" encoding="UTF-8" standalone="no"?>
<!-- Created with Inkscape (http://www.inkscape.org/) -->

<svg
   xmlns:dc="http://purl.org/dc/elements/1.1/"
   xmlns:cc="http://creativecommons.org/ns#"
   xmlns:rdf="http://www.w3.org/1999/02/22-rdf-syntax-ns#"
   xmlns:svg="http://www.w3.org/2000/svg"
   xmlns="http://www.w3.org/2000/svg"
   xmlns:sodipodi="http://sodipodi.sourceforge.net/DTD/sodipodi-0.dtd"
   xmlns:inkscape="http://www.inkscape.org/namespaces/inkscape"
   width="744.09448819"
   height="1052.3622047"
   id="svg2"
   version="1.1"
   inkscape:version="0.48.5 r10040"
   sodipodi:docname="logos.svg">
  <defs
     id="defs4" />
  <sodipodi:namedview
     id="base"
     pagecolor="#ffffff"
     bordercolor="#666666"
     borderopacity="1.0"
     inkscape:pageopacity="0.0"
     inkscape:pageshadow="2"
     inkscape:zoom="0.37157364"
     inkscape:cx="-39.591142"
     inkscape:cy="735.35065"
     inkscape:document-units="px"
     inkscape:current-layer="layer1"
     showgrid="false"
     showguides="true"
     inkscape:guide-bbox="true"
     inkscape:window-width="1366"
     inkscape:window-height="752"
     inkscape:window-x="0"
     inkscape:window-y="16"
     inkscape:window-maximized="0">
    <sodipodi:guide
       orientation="0,1"
       position="516.18795,1097.4297"
       id="guide3848" />
  </sodipodi:namedview>
  <metadata
     id="metadata7">
    <rdf:RDF>
      <cc:Work
         rdf:about="">
        <dc:format>image/svg+xml</dc:format>
        <dc:type
           rdf:resource="http://purl.org/dc/dcmitype/StillImage" />
        <dc:title></dc:title>
      </cc:Work>
    </rdf:RDF>
  </metadata>
  <g
     inkscape:label="Layer 1"
     inkscape:groupmode="layer"
     id="layer1">
    <path
       sodipodi:type="arc"
       style="fill:none;stroke:#000000;stroke-width:10;stroke-linejoin:miter;stroke-miterlimit:4;stroke-opacity:1;stroke-dasharray:none"
       id="path3771"
       sodipodi:cx="171.5"
       sodipodi:cy="445.86218"
       sodipodi:rx="66.5"
       sodipodi:ry="66.5"
       d="m 171.5,512.36218 a 66.5,66.5 0 1 1 62.33133,-89.67446"
       sodipodi:start="1.5707963"
       sodipodi:end="5.9272276"
       sodipodi:open="true" />
    <path
       style="fill:none;stroke:#000000;stroke-width:10;stroke-linecap:butt;stroke-linejoin:miter;stroke-opacity:1;stroke-miterlimit:4;stroke-dasharray:none"
       d="m 155,474.36218 c 52,0 52,0 52,0 l 0,106"
       id="path3777"
       inkscape:connector-curvature="0" />
    <text
       xml:space="preserve"
       style="font-size:36px;font-style:normal;font-variant:normal;font-stretch:normal;line-height:125%;letter-spacing:0px;word-spacing:0px;fill:#000000;fill-opacity:1;stroke:none;font-family:URW Gothic L;-inkscape-font-specification:URW Gothic L Book"
       x="348"
       y="454.36218"
       id="text3785"
       sodipodi:linespacing="125%"><tspan
         sodipodi:role="line"
         x="348"
         y="454.36218"
         id="tspan3789">Technical problems,</tspan><tspan
         sodipodi:role="line"
         x="348"
         y="499.36218"
         id="tspan3902">       Creative solutions</tspan><tspan
         sodipodi:role="line"
         x="348"
         y="544.36218"
         id="tspan3900" /></text>
    <path
       style="fill:none;stroke:#000000;stroke-width:10;stroke-linecap:square;stroke-linejoin:miter;stroke-miterlimit:4;stroke-opacity:1"
       d="m 231,581.0625 c 6.60212,17.77613 23.55498,29.5625 42.5,29.5625 25.03875,0 45.34375,-20.30987 45.34375,-45.375 0,-24.05932 -20.45385,-43.74 -44.09857,-45.28125 m 44.09857,-61.03125 c -6.60212,-17.77613 -23.55498,-29.5625 -42.5,-29.5625 C 251.305,429.375 231,449.68487 231,474.75 c 0,24.08094 20.07931,43.77128 43.75417,45.28125"
       id="path3795"
       inkscape:connector-curvature="0"
       sodipodi:nodetypes="cssccssc" />
    <path
       sodipodi:open="true"
       sodipodi:end="5.9272276"
       sodipodi:start="1.5707963"
       d="m 171.5,512.36218 a 66.5,66.5 0 1 1 62.33133,-89.67446"
       sodipodi:ry="66.5"
       sodipodi:rx="66.5"
       sodipodi:cy="445.86218"
       sodipodi:cx="171.5"
       id="path3804"
       style="fill:none;stroke:#000000;stroke-width:10;stroke-linejoin:miter;stroke-miterlimit:4;stroke-opacity:1;stroke-dasharray:none"
       sodipodi:type="arc"
       transform="translate(389.18128,-322.8245)" />
    <path
       inkscape:connector-curvature="0"
       id="path3806"
       d="m 544.18129,151.53768 c 52,0 52,0 52,0 l 0,106"
       style="fill:none;stroke:#000000;stroke-width:10;stroke-linecap:butt;stroke-linejoin:miter;stroke-miterlimit:4;stroke-opacity:1;stroke-dasharray:none" />
    <path
       transform="matrix(-1,0,0,-1,793.01262,702.89993)"
       sodipodi:type="arc"
       style="fill:none;stroke:#000000;stroke-width:10;stroke-linejoin:miter;stroke-miterlimit:4;stroke-opacity:1;stroke-dasharray:none"
       id="path3808"
       sodipodi:cx="171.5"
       sodipodi:cy="445.86218"
       sodipodi:rx="66.5"
       sodipodi:ry="66.5"
       d="m 171.5,512.36218 a 66.5,66.5 0 1 1 62.33133,-89.67446"
       sodipodi:start="1.5707963"
       sodipodi:end="5.9272276"
       sodipodi:open="true" />
    <path
       transform="translate(-46.352178,-325.99872)"
       sodipodi:type="arc"
       style="fill:none;stroke:#000000;stroke-width:8;stroke-linejoin:miter;stroke-miterlimit:4;stroke-opacity:1;stroke-dasharray:none"
       id="path3834"
       sodipodi:cx="171.5"
       sodipodi:cy="445.86218"
       sodipodi:rx="66.5"
       sodipodi:ry="66.5"
       d="m 171.5,512.36218 a 66.5,66.5 0 1 1 62.33133,-89.67446"
       sodipodi:start="1.5707963"
       sodipodi:end="5.9272276"
       sodipodi:open="true" />
    <path
       style="fill:none;stroke:#000000;stroke-width:8;stroke-linecap:butt;stroke-linejoin:miter;stroke-miterlimit:4;stroke-opacity:1;stroke-dasharray:none"
       d="m 108.64783,148.36347 c 52,0 52,0 52,0 l 0,106"
       id="path3836"
       inkscape:connector-curvature="0" />
    <text
       sodipodi:linespacing="95.999998%"
       id="text3838"
       y="162.20576"
       x="190.09337"
       style="font-size:72px;font-style:normal;font-variant:normal;font-stretch:normal;line-height:95.99999785000001395%;letter-spacing:0px;word-spacing:0px;fill:#000000;fill-opacity:1;stroke:#ffffff;stroke-width:2;stroke-miterlimit:4;stroke-opacity:1;stroke-dasharray:none;font-family:URW Gothic L;-inkscape-font-specification:URW Gothic L Book"
       xml:space="preserve"><tspan
         id="tspan3842"
         y="162.20576"
         x="190.09337"
         sodipodi:role="line">arrett</tspan><tspan
         y="231.32576"
         x="190.09337"
         sodipodi:role="line"
         id="tspan3846">   Smith</tspan></text>
    <path
       sodipodi:open="true"
       sodipodi:end="5.9272276"
       sodipodi:start="1.5707963"
       d="m 171.5,512.36218 a 66.5,66.5 0 1 1 62.33133,-89.67446"
       sodipodi:ry="66.5"
       sodipodi:rx="66.5"
       sodipodi:cy="445.86218"
       sodipodi:cx="171.5"
       id="path3854"
       style="fill:none;stroke:#000000;stroke-width:8;stroke-linejoin:miter;stroke-miterlimit:4;stroke-opacity:1;stroke-dasharray:none"
       sodipodi:type="arc"
       transform="translate(-8.2920629,317.21722)" />
    <path
       inkscape:connector-curvature="0"
       id="path3856"
       d="m 146.70795,791.57941 c 52,0 52,0 52,0 l 0,79.08743"
       style="fill:none;stroke:#000000;stroke-width:8;stroke-linecap:butt;stroke-linejoin:miter;stroke-miterlimit:4;stroke-opacity:1;stroke-dasharray:none" />
    <path
       transform="matrix(-1,0,0,-1,386.53926,1366.029)"
       sodipodi:type="arc"
       style="fill:none;stroke:#000000;stroke-width:8;stroke-linejoin:miter;stroke-miterlimit:4;stroke-opacity:1;stroke-dasharray:none"
       id="path3868"
       sodipodi:cx="171.5"
       sodipodi:cy="445.86218"
       sodipodi:rx="66.5"
       sodipodi:ry="66.5"
       d="m 171.5,512.36218 a 66.5,66.5 0 1 1 62.33133,-89.67446"
       sodipodi:start="1.5707963"
       sodipodi:end="5.9272276"
       sodipodi:open="true" />
    <path
       style="fill:none;stroke:#000000;stroke-width:8;stroke-linecap:butt;stroke-linejoin:miter;stroke-miterlimit:4;stroke-opacity:1;stroke-dasharray:none"
       d="m 231.53925,891.66683 c -52,0 -52,0 -52,0 l 0,-79.08743"
       id="path3870"
       inkscape:connector-curvature="0" />
    <path
       style="fill:none;stroke:#ffffff;stroke-width:2;stroke-linecap:square;stroke-linejoin:miter;stroke-miterlimit:4;stroke-opacity:1;stroke-dasharray:none"
       id="path3874"
       d="m -279.68013,745.36442 c -18.30942,-4.63405 -37.20391,-5.66758 -55.97728,-6.77764 -32.79783,-0.8493 -65.67386,-2.48053 -98.49342,-1.87915 -7.42974,0.13615 -14.84772,0.65056 -22.27158,0.97584 -29.64124,2.83727 -60.72773,4.90293 -87.92224,18.30415 -3.22292,1.58823 -6.20784,3.61959 -9.31176,5.42939 8.44764,-4.40897 16.35763,-10.05418 25.34293,-13.22692 2.40803,-0.85029 -3.4441,3.80739 -4.79827,5.97253 -6.39853,10.23033 -6.75045,23.0739 -7.59524,34.69653 -0.5242,14.80407 -1.19548,29.70552 2.1241,44.27253 2.81382,12.34762 4.49469,14.92352 9.40962,26.7078 8.846,18.16328 17.75732,36.68453 29.80914,53.01454 8.07885,10.94671 12.20343,14.5094 21.72593,24.30036 15.3697,14.32909 33.25436,25.29187 53.34019,31.58825 11.10716,3.4818 16.02177,3.91267 27.46109,5.84867 12.21274,0.67776 17.58089,1.89591 29.77274,-1.27175 5.5951,-1.45371 10.47195,-6.58536 16.23276,-6.10433 4.45307,0.37183 -14.93051,9.60402 -11.73558,6.47985 5.95877,-5.82682 13.64912,-9.58275 20.19024,-14.74729 7.31855,-5.77836 14.24178,-12.04052 21.36267,-18.06079 26.17447,-24.18943 52.71273,-48.2481 76.35877,-74.9849 4.14833,-4.69055 8.02608,-9.61362 12.03912,-14.42043 0,0 32.04163,-13.57299 32.04163,-13.57299 l 0,0 c -4.34548,5.0066 -8.56891,10.1218 -13.03643,15.01981 -24.33408,26.67888 -51.16807,50.97392 -77.36041,75.77698 -9.28605,8.13714 -28.56486,25.77351 -39.55826,32.68878 -15.63385,9.83428 -31.64908,19.10877 -48.09708,27.51078 -5.38763,2.75212 -11.28708,4.49118 -17.18536,5.83695 -12.39426,2.82791 -18.43017,1.52458 -30.7492,0.6582 -11.87556,-2.20102 -16.29175,-2.56842 -27.75404,-6.49201 -20.2432,-6.92933 -37.99239,-18.76151 -53.64184,-33.22061 -10.12949,-10.30096 -13.68351,-13.21155 -22.30405,-24.72178 -12.31506,-16.44319 -21.34292,-35.11049 -30.41272,-53.43923 -5.02095,-11.48355 -7.1428,-15.10333 -10.32622,-27.13057 -3.87856,-14.65355 -3.79329,-29.70456 -3.19167,-44.72863 0.57758,-12.01851 0.47808,-25.39443 6.14015,-36.39693 8.66291,-16.8337 26.83344,-20.85645 43.4711,-31.29322 3.02586,-1.55233 5.95594,-3.3076 9.07758,-4.657 27.15044,-11.7364 57.45394,-12.98503 86.44856,-15.69371 40.85782,-1.58313 81.76626,-0.80629 122.64081,-0.0799 19.92055,0.68259 39.86196,1.59312 59.48312,5.38916 0,0 -32.7496,22.4287 -32.7496,22.4287 z"
       inkscape:connector-curvature="0" />
    <path
       sodipodi:open="true"
       sodipodi:end="5.9272276"
       sodipodi:start="1.5707963"
       d="m 171.5,512.36218 a 66.5,66.5 0 1 1 62.33133,-89.67446"
       sodipodi:ry="66.5"
       sodipodi:rx="66.5"
       sodipodi:cy="445.86218"
       sodipodi:cx="171.5"
       id="path3904"
       style="fill:none;stroke:#000000;stroke-width:10;stroke-linejoin:miter;stroke-miterlimit:4;stroke-opacity:1;stroke-dasharray:none"
       sodipodi:type="arc"
       transform="translate(212.60927,316.22264)" />
    <path
       inkscape:connector-curvature="0"
       id="path3906"
       d="m 367.60927,790.58482 c 52,0 52,0 52,0 l 0,106"
       style="fill:none;stroke:#000000;stroke-width:10;stroke-linecap:butt;stroke-linejoin:miter;stroke-miterlimit:4;stroke-opacity:1;stroke-dasharray:none" />
    <path
       sodipodi:nodetypes="cssccssc"
       inkscape:connector-curvature="0"
       id="path3908"
       d="m 445.60928,859.92509 c 7.27475,19.49177 25.95477,32.41569 46.82991,32.41569 27.5897,0 49.96337,-22.27005 49.96337,-49.75432 0,-26.38138 -22.53769,-47.96152 -48.59133,-49.65152 m 48.59133,-66.92162 c -7.27474,-19.49178 -25.95476,-32.4157 -46.8299,-32.4157 -27.5897,0 -49.96338,22.27006 -49.96338,49.75432 0,26.40509 22.125,47.99582 48.21185,49.65153"
       style="fill:none;stroke:#000000;stroke-width:10;stroke-linecap:square;stroke-linejoin:miter;stroke-miterlimit:4;stroke-opacity:1" />
  </g>
</svg>
